<svg width="215" height="47" viewBox="0 0 215 47" fill="none" xmlns="http://www.w3.org/2000/svg">
<path d="M1.17805 29.7867V22.2055H5.08569C6.02165 22.2055 6.73922 22.3809 7.2384 22.7319C7.73758 23.0751 7.98717 23.5743 7.98717 24.2295C7.98717 24.6507 7.88967 24.986 7.69468 25.2356C7.49969 25.4774 7.2267 25.6607 6.87571 25.7855C6.52473 25.9025 6.10745 25.9766 5.62387 26.0078L5.67066 25.9376C6.02165 25.9454 6.35314 25.9766 6.66512 26.0312C6.97711 26.078 7.2501 26.1638 7.48409 26.2886C7.72588 26.4134 7.91307 26.5889 8.04567 26.8151C8.18606 27.0335 8.25626 27.3181 8.25626 27.6691C8.25626 28.1371 8.13926 28.5232 7.90527 28.8274C7.67128 29.1316 7.34369 29.3656 6.92251 29.5294C6.50913 29.6853 6.02945 29.7711 5.48347 29.7867H1.17805ZM2.52349 28.6402H5.29628C5.80326 28.6402 6.19324 28.5544 6.46623 28.3828C6.74702 28.2034 6.88741 27.9265 6.88741 27.5521C6.88741 27.2635 6.80162 27.053 6.63002 26.9204C6.46623 26.7878 6.24784 26.702 5.97485 26.663C5.70186 26.624 5.41717 26.6045 5.12079 26.6045H2.52349V28.6402ZM2.52349 25.4813H5.00379C5.51077 25.4813 5.90075 25.3955 6.17374 25.2239C6.45453 25.0445 6.59493 24.7677 6.59493 24.3933C6.59493 24.0189 6.45453 23.7537 6.17374 23.5977C5.90075 23.4339 5.54197 23.352 5.09739 23.352H2.52349V25.4813ZM23.6716 26.5811V22.2055H25.0171V26.6864C25.0171 27.1622 24.9508 27.5833 24.8182 27.9499C24.6934 28.3087 24.5101 28.6129 24.2683 28.8625C24.0343 29.1121 23.7535 29.3188 23.426 29.4826C23.1062 29.6385 22.7552 29.7516 22.373 29.8218C21.9908 29.892 21.5852 29.9271 21.1563 29.9271C20.7195 29.9271 20.3022 29.892 19.9044 29.8218C19.5144 29.7516 19.1556 29.6385 18.828 29.4826C18.5083 29.3188 18.2314 29.1121 17.9974 28.8625C17.7634 28.6129 17.5801 28.3087 17.4475 27.9499C17.3227 27.5833 17.2603 27.1622 17.2603 26.6864V22.2055H18.6058V26.5811C18.6058 27.1739 18.7189 27.6262 18.945 27.9382C19.1712 28.2424 19.4754 28.453 19.8576 28.57C20.2398 28.6792 20.6727 28.7338 21.1563 28.7338C21.6242 28.7338 22.0454 28.6792 22.4198 28.57C22.802 28.453 23.1062 28.2424 23.3324 27.9382C23.5586 27.6262 23.6716 27.1739 23.6716 26.5811ZM35.7963 26.5694V28.6285H41.1781V29.7867H34.4508V22.2055H41.1664V23.3637H35.7963V25.4579H40.1953V26.5694H35.7963ZM57.4742 28.3828L57.053 28.5466V22.2055H58.4102V29.7867H57.053L51.332 23.6445L51.7414 23.4807V29.7867H50.396V22.2055H51.7414L57.4742 28.3828ZM71.9678 29.9271C71.0708 29.9271 70.287 29.7672 69.6162 29.4475C68.9532 29.1277 68.4384 28.6753 68.0719 28.0903C67.7131 27.5053 67.5337 26.8073 67.5337 25.9961C67.5337 25.1849 67.7131 24.4869 68.0719 23.9019C68.4384 23.3091 68.9532 22.8567 69.6162 22.5447C70.287 22.225 71.0708 22.0651 71.9678 22.0651C72.8804 22.0651 73.6642 22.225 74.3194 22.5447C74.9824 22.8567 75.4971 23.3091 75.8637 23.9019C76.2303 24.4869 76.4136 25.1849 76.4136 25.9961C76.4136 26.8073 76.2303 27.5053 75.8637 28.0903C75.4971 28.6753 74.9824 29.1277 74.3194 29.4475C73.6642 29.7672 72.8804 29.9271 71.9678 29.9271ZM71.9678 28.7338C72.5606 28.7338 73.0831 28.6363 73.5355 28.4413C73.9957 28.2385 74.3545 27.9343 74.6119 27.5287C74.8771 27.1232 75.0097 26.6123 75.0097 25.9961C75.0097 25.3877 74.8771 24.8807 74.6119 24.4752C74.3545 24.0696 73.9957 23.7654 73.5355 23.5626C73.0831 23.3598 72.5606 23.2584 71.9678 23.2584C71.3828 23.2584 70.8563 23.3598 70.3884 23.5626C69.9282 23.7654 69.5655 24.0696 69.3003 24.4752C69.0351 24.8807 68.9025 25.3877 68.9025 25.9961C68.9025 26.6123 69.0351 27.1232 69.3003 27.5287C69.5655 27.9343 69.9282 28.2385 70.3884 28.4413C70.8563 28.6363 71.3828 28.7338 71.9678 28.7338Z" fill="#525252"/>
<path d="M126.792 29.7867V22.2055H130.7C131.636 22.2055 132.354 22.3809 132.853 22.7319C133.352 23.0751 133.602 23.5743 133.602 24.2295C133.602 24.6507 133.504 24.986 133.309 25.2356C133.114 25.4774 132.841 25.6607 132.49 25.7855C132.139 25.9025 131.722 25.9766 131.238 26.0078L131.285 25.9376C131.636 25.9454 131.968 25.9766 132.28 26.0312C132.592 26.078 132.865 26.1638 133.098 26.2886C133.34 26.4134 133.527 26.5889 133.66 26.8151C133.8 27.0335 133.871 27.3181 133.871 27.6691C133.871 28.1371 133.754 28.5232 133.52 28.8274C133.286 29.1316 132.958 29.3656 132.537 29.5294C132.124 29.6853 131.644 29.7711 131.098 29.7867H126.792ZM128.138 28.6402H130.911C131.418 28.6402 131.808 28.5544 132.081 28.3828C132.361 28.2034 132.502 27.9265 132.502 27.5521C132.502 27.2635 132.416 27.053 132.244 26.9204C132.081 26.7878 131.862 26.702 131.589 26.663C131.316 26.624 131.032 26.6045 130.735 26.6045H128.138V28.6402ZM128.138 25.4813H130.618C131.125 25.4813 131.515 25.3955 131.788 25.2239C132.069 25.0445 132.209 24.7677 132.209 24.3933C132.209 24.0189 132.069 23.7537 131.788 23.5977C131.515 23.4339 131.156 23.352 130.712 23.352H128.138V25.4813ZM144.22 26.5694V28.6285H149.602V29.7867H142.875V22.2055H149.59V23.3637H144.22V25.4579H148.619V26.5694H144.22ZM159.885 28.0201V26.8619H164.447V28.0201H159.885ZM158.118 29.7867L161.452 22.2055H162.903L166.272 29.7867H164.798L161.885 22.9425H162.47L159.569 29.7867H158.118ZM181.291 26.5811V22.2055H182.636V26.6864C182.636 27.1622 182.57 27.5833 182.437 27.9499C182.312 28.3087 182.129 28.6129 181.887 28.8625C181.653 29.1121 181.373 29.3188 181.045 29.4826C180.725 29.6385 180.374 29.7516 179.992 29.8218C179.61 29.892 179.204 29.9271 178.775 29.9271C178.338 29.9271 177.921 29.892 177.523 29.8218C177.133 29.7516 176.775 29.6385 176.447 29.4826C176.127 29.3188 175.85 29.1121 175.616 28.8625C175.382 28.6129 175.199 28.3087 175.066 27.9499C174.942 27.5833 174.879 27.1622 174.879 26.6864V22.2055H176.225V26.5811C176.225 27.1739 176.338 27.6262 176.564 27.9382C176.79 28.2424 177.094 28.453 177.477 28.57C177.859 28.6792 178.292 28.7338 178.775 28.7338C179.243 28.7338 179.664 28.6792 180.039 28.57C180.421 28.453 180.725 28.2424 180.951 27.9382C181.178 27.6262 181.291 27.1739 181.291 26.5811ZM191.368 22.2055H198.715V23.3637H191.368V22.2055ZM194.375 23.2233H195.72V29.7867H194.375V23.2233ZM214.484 22.2055L211.372 27.3298V29.7867H210.015V27.3298L206.903 22.2055H208.459L211.091 26.6864H210.342L212.928 22.2055H214.484Z" fill="#D9B79A"/>
<path fill-rule="evenodd" clip-rule="evenodd" d="M110.367 7.14228C107.22 7.46546 108.108 10.0455 104.745 12.8146C102.647 14.5352 101.195 15.4214 99.5809 16.6856C95.9229 19.5621 93.8514 22.8414 93.9324 27.6799C94.7928 19.8843 101.087 16.2283 103.669 14.3194C99.9308 17.5986 98.2091 20.3138 97.1063 22.5456C94.766 27.2758 94.6585 30.7709 99.366 34.2381C101.303 35.6365 103.992 37.3294 104.45 41.2272C103.293 39.238 100.684 37.034 98.5321 36.4154C102.97 39.8298 105.042 42.4366 104.369 46.9801C102.889 40.7441 95.5731 38.8355 92.1568 33.4854C84.1679 20.0184 99.2847 17.5986 103.642 11.1207C99.0158 15.691 92.4795 16.8198 89.3595 23.5663C91.1344 16.6856 93.7704 14.589 95.8145 13.0565C99.3925 10.4486 103.158 9.58818 104.879 4.69673C102.028 9.56242 99.3118 9.7772 95.2229 12.5182C91.9683 14.6964 88.848 18.0563 88.0412 25.663C84.572 18.4049 88.5259 8.24429 93.7172 3.70178C99.0969 -1.00266 105.767 -1.94341 111.282 5.15305C118.491 9.40016 121.073 19.0238 111.443 31.0663C118.383 21.3352 116.823 12.7607 112.734 9.29243C117.549 16.2815 114.51 22.8678 111.685 28.701C109.937 32.3024 110.448 33.109 111.981 36.7653C109.21 34.3455 109.963 32.1144 107.005 29.6956C104.988 28.0824 102.486 27.0878 100.791 25.2598C99.8765 24.2381 99.5809 23.1364 100.791 20.4209C101.437 19.0506 102.136 18.8087 102.916 19.3189C103.642 19.8301 106.063 21.9802 106.386 20.1522C106.467 19.6411 106.36 19.3456 106.924 19.1041C107.3 18.9429 107.677 19.0235 107.569 18.4855C107.516 18.2169 107.596 18.1095 107.919 18.056C108.296 17.9753 108.269 17.8412 108.215 17.4106C108.054 16.3621 108.887 16.4966 109.399 16.3354C109.882 16.1741 109.882 15.7984 109.748 15.3675C109.667 15.126 109.614 14.8841 109.533 14.6426C109.291 13.7821 109.264 13.2174 109.372 12.6266L110.313 12.5182L109.479 12.196C110.205 10.4215 110.743 9.61594 110.367 7.14262L110.367 7.14228ZM112.546 13.2174C113.03 15.3675 112.842 17.6264 112.304 19.6963C111.363 23.2709 109.829 24.4803 109.103 28.8355C109.318 24.2384 110.717 22.7336 111.658 19.4534C112.169 17.6799 112.492 15.6372 112.546 13.2174ZM98.2091 2.03505C91.5924 5.12595 87.988 12.5717 87.8805 19.7498C89.2524 12.7339 91.4849 6.71239 98.2091 2.03505Z" fill="#CDA582"/>
</svg>
