<?xml version="1.0"?>
<svg width="46" height="46" xmlns="http://www.w3.org/2000/svg" xmlns:svg="http://www.w3.org/2000/svg">
 <g class="layer">
  <title>Layer 1</title>
  <path clip-rule="evenodd" d="m0.2,0.21c-0.26,0.27 -0.26,0.69 0.01,0.94l0.21,0.2l6.37,0c4.18,0 6.56,0.03 6.91,0.09c1.8,0.33 3.21,1.94 3.29,3.75c0.04,0.87 0.21,0.83 -3.67,0.83c-3.93,0 -3.71,0.05 -3.71,-0.93c0,-1.04 -0.4,-1.77 -1.19,-2.17l-0.46,-0.23l-3.79,0l-3.78,0l-0.19,0.21c-0.26,0.28 -0.26,0.7 0.01,0.95c0.2,0.19 0.23,0.19 3.77,0.19c4.33,0 4.19,-0.03 4.19,1.03c0,1.02 0.41,1.76 1.19,2.15l0.46,0.23l3.41,0c3.89,0 3.94,0 4.57,-0.63c1.5,-1.5 0.12,-5.04 -2.46,-6.27c-1.17,-0.56 -1.06,-0.55 -8.32,-0.55l-6.63,0l-0.19,0.21zm9.54,8.78c-0.17,0.18 -0.17,0.4 -0.17,5.3l0,5.1l0.19,0.2c0.29,0.28 0.72,0.26 0.99,-0.05l0.21,-0.24l0,-5.01c0,-4.94 -0.01,-5.02 -0.19,-5.25c-0.24,-0.31 -0.78,-0.33 -1.03,-0.05zm3.1,-0.01c-0.17,0.17 -0.18,0.3 -0.18,3.73c0,3.98 -0.01,3.9 0.66,3.9c0.7,0 0.69,0.04 0.69,-3.93c0,-3.97 0.02,-3.88 -0.67,-3.88c-0.2,0 -0.39,0.07 -0.5,0.18zm3.06,0.06c-0.3,0.39 -0.28,5.11 0.03,5.47c0.26,0.31 0.7,0.33 0.98,0.05c0.29,-0.29 0.31,-5.26 0.03,-5.57c-0.26,-0.28 -0.8,-0.26 -1.04,0.05zm13.38,5.45c-0.22,0.07 -0.98,0.36 -1.67,0.66c-0.7,0.31 -1.43,0.58 -1.62,0.62c-0.72,0.12 -1,0.76 -0.53,1.2c0.36,0.34 0.95,0.22 2.69,-0.53c2.15,-0.92 2.24,-0.88 2.61,1.24c0.17,0.94 0.2,0.97 1.39,1.5c0.97,0.42 0.98,0.42 0.87,0.66c-0.23,0.54 -0.64,1.1 -1.03,1.44c-0.95,0.81 -0.15,1.82 0.86,1.08c0.43,-0.3 0.98,-1.01 1.31,-1.68l0.24,-0.47l0.65,0.37c2.93,1.65 3.14,2.98 1.13,7.27l-0.45,0.96l-0.69,-0.05c-3.27,-0.22 -7.28,1.19 -10,3.52l-0.69,0.59l-1.38,0c-1.91,0 -2.49,-0.21 -2.86,-1.02c-0.47,-1.04 0.36,-2.3 1.52,-2.3c0.45,0 0.75,-0.32 0.72,-0.75c-0.03,-0.37 -0.05,-0.38 -1.08,-1.07c-2.78,-1.84 -3.92,-3.63 -4.11,-6.47c-0.07,-1.11 -0.21,-1.35 -0.73,-1.35c-0.51,0 -0.73,0.37 -0.7,1.14c0.02,0.63 0.02,0.64 -0.4,1.21c-1.6,2.16 -2.01,5.35 -0.62,4.78c0.3,-0.13 0.41,-0.34 0.56,-1.12c0.12,-0.61 0.45,-1.6 0.67,-2.04l0.16,-0.31l0.09,0.23c0.74,1.88 1.89,3.39 3.41,4.48l0.42,0.3l-0.43,0.38c-0.95,0.86 -1.27,2.19 -0.79,3.35l0.22,0.56l-2.01,0l-2.01,0l0,-1.98l0,-1.98l-0.22,-0.22c-0.36,-0.36 -0.86,-0.29 -1.09,0.14c-0.1,0.2 -0.13,0.66 -0.13,2.15l0,1.89l-1.3,0l-1.3,0l0,-2.37c0,-7 1.8,-10.93 5.97,-12.99c1.75,-0.87 5.39,-1.45 5.11,-0.82c-0.59,1.36 -0.75,3.71 -0.29,4.14c0.62,0.58 1.13,0.08 1.14,-1.13c0.01,-1.07 0.24,-2.06 0.69,-2.96c0.55,-1.09 0.36,-1.4 -0.99,-1.57c-4.72,-0.61 -9.33,1.98 -11.46,6.44c-1.18,2.48 -1.61,4.94 -1.61,9.35l0,1.91l-1.78,0c-1.75,0 -1.78,0 -1.98,0.21c-0.24,0.26 -0.25,0.59 -0.01,0.9l0.19,0.24l13.07,0c9.67,0 13.12,0.02 13.26,0.1c0.29,0.15 0.33,0.25 0.33,0.75c0.01,2.77 -3.89,7.01 -8.49,9.25c-1.26,0.61 -1.49,0.94 -0.99,1.44c0.35,0.35 0.65,0.28 2.05,-0.44c2.71,-1.38 4.12,-2.51 6.89,-5.51c1.5,-1.62 3.97,-1.92 5.89,-0.72c0.24,0.15 1.94,1.77 3.77,3.58c3.62,3.6 3.61,3.59 4.07,3.1c0.46,-0.49 0.49,-0.44 -3.33,-4.25c-3.87,-3.85 -4.04,-3.99 -5.59,-4.39c-0.67,-0.17 -2.26,-0.18 -2.88,-0.01l-0.45,0.12l0.21,-0.61c0.44,-1.32 0.36,-2.41 -0.23,-3.06c-0.62,-0.69 -0.67,-0.7 -4.02,-0.7l-2.96,-0.01l0.22,-0.18c2.82,-2.26 7.73,-3.12 11.48,-1.99c1.15,0.34 1.34,0.35 1.6,0.11c0.7,-0.66 -0.07,-1.27 -2.14,-1.7l-0.51,-0.1l0.23,-0.52c2.7,-5.92 1.93,-7.71 -4.57,-10.52c-0.55,-0.24 -0.7,-0.34 -0.7,-0.49c0,-0.31 -0.35,-1.47 -0.58,-1.92c-0.52,-1.02 -1.24,-1.35 -2.29,-1.06zm-3.43,4.13c-0.09,0.07 -0.26,0.42 -0.38,0.78c-0.13,0.36 -0.37,0.87 -0.54,1.12c-0.51,0.73 -0.33,1.39 0.38,1.39c0.48,0 1.47,-1.55 1.6,-2.53c0.09,-0.67 -0.56,-1.14 -1.06,-0.76zm15.38,12.27c-0.49,0.48 -0.34,0.82 0.67,1.49c0.66,0.44 2.63,2.14 3,2.58c0.32,0.4 1.08,0.02 1.08,-0.54c0,-0.6 -3.62,-3.71 -4.33,-3.71c-0.13,0 -0.33,0.08 -0.42,0.18zm-41.03,2.19l-0.2,0.2l0,6.16l0,6.15l0.21,0.19c0.27,0.26 0.69,0.26 0.94,-0.01l0.2,-0.21l0,-5.67l0,-5.67l1.24,0c1.18,0 1.25,-0.02 1.44,-0.21c0.24,-0.27 0.25,-0.72 0.01,-0.96c-0.3,-0.3 -3.56,-0.28 -3.84,0.03z" fill="#1d1d1d" fill-rule="evenodd" id="svg_1"/>
 </g>
</svg>