<?xml version="1.0"?>
<svg width="46" height="45" xmlns="http://www.w3.org/2000/svg" xmlns:svg="http://www.w3.org/2000/svg">
 <g class="layer">
  <title>Layer 1</title>
  <path clip-rule="evenodd" d="m43.14,0.15c-0.55,0.23 -9.88,7.68 -16.39,13.08l-2.16,1.79l-6.87,-6.69c-7.38,-7.19 -7.14,-6.98 -8.28,-7.19c-0.38,-0.07 -0.67,-0.07 -1.05,0c-1.09,0.2 -1.16,0.25 -4.88,3.87c-3.83,3.72 -3.78,3.67 -3.26,4.18c0.46,0.44 0.52,0.4 3.03,-2.04l2.32,-2.26l0.47,0.46l0.46,0.46l-2.3,2.26c-2.51,2.45 -2.55,2.51 -2.09,2.96c0.5,0.49 0.57,0.44 3.1,-2.02l2.29,-2.24l0.44,0.44l0.45,0.44l-2.22,2.17c-2.49,2.44 -2.6,2.6 -2.15,3.11c0.41,0.46 0.61,0.33 3.07,-2.08l2.29,-2.23l0.47,0.45l0.47,0.46l-2.29,2.24c-2.51,2.47 -2.56,2.54 -2.06,3.03c0.45,0.44 0.51,0.4 3.02,-2.04l2.32,-2.26l0.47,0.46l0.47,0.46l-2.31,2.26c-2.51,2.45 -2.55,2.51 -2.09,2.96c0.5,0.48 0.57,0.44 3.1,-2.02l2.29,-2.24l0.45,0.44l0.44,0.44l-2.21,2.17c-2.5,2.44 -2.6,2.6 -2.15,3.11c0.4,0.46 0.6,0.33 3.06,-2.08l2.29,-2.24l0.47,0.46l0.47,0.46l-2.28,2.24c-2.52,2.47 -2.57,2.54 -2.07,3.03c0.46,0.44 0.51,0.4 3.03,-2.04l2.31,-2.26l0.47,0.46l0.47,0.46l-2.31,2.26c-2.5,2.45 -2.55,2.51 -2.09,2.96c0.5,0.48 0.58,0.44 3.1,-2.02l2.29,-2.24l0.48,0.47l0.47,0.47l-1.37,1.17c-1.96,1.68 -5.96,5.15 -6.51,5.66c-0.58,0.54 -0.6,0.7 -0.11,1.41c0.95,1.38 1.05,3.13 0.26,4.59c-0.41,0.74 -3.34,3.54 -4.06,3.88c-3.14,1.47 -6.71,-0.69 -6.73,-4.06c-0.03,-4.09 4.86,-6.1 7.93,-3.27c0.71,0.65 1,0.73 1.39,0.37c0.36,-0.33 0.29,-0.63 -0.25,-1.2c-3.73,-3.88 -10.47,-1.27 -10.48,4.06c0,3.75 3.67,6.64 7.37,5.79l0.5,-0.11l-0.12,0.44c-0.81,3 1.39,6.42 4.6,7.11c5.47,1.19 9.54,-4.99 6.16,-9.36l-0.46,-0.58l2.28,-2.51c1.85,-2.03 6.08,-6.71 6.2,-6.87c0.02,-0.02 0.26,0.17 0.53,0.43l0.49,0.48l-2.29,2.24c-2.52,2.47 -2.57,2.54 -2.07,3.03c0.46,0.44 0.52,0.4 3.03,-2.04l2.32,-2.26l0.47,0.46l0.46,0.46l-2.3,2.26c-2.51,2.45 -2.55,2.51 -2.09,2.96c0.5,0.48 0.57,0.44 3.1,-2.02l2.29,-2.24l0.47,0.46l0.46,0.46l-2.28,2.24c-2.47,2.4 -2.6,2.6 -2.13,2.99c0.52,0.44 0.68,0.34 3.18,-2.1l2.22,-2.16l0.45,0.43l0.45,0.44l-2.29,2.24c-2.52,2.47 -2.56,2.54 -2.07,3.02c0.46,0.45 0.52,0.41 3.03,-2.04l2.32,-2.25l0.47,0.46l0.47,0.46l-2.31,2.26c-2.51,2.45 -2.55,2.51 -2.09,2.96c0.5,0.48 0.57,0.44 3.1,-2.02l2.29,-2.24l0.47,0.46l0.47,0.46l-2.29,2.24c-2.46,2.4 -2.6,2.6 -2.13,2.99c0.52,0.44 0.68,0.34 3.18,-2.1l2.22,-2.16l0.45,0.43l0.45,0.44l-2.28,2.24c-2.52,2.46 -2.57,2.54 -2.07,3.02c0.46,0.45 0.51,0.41 3.03,-2.04l2.31,-2.25l0.47,0.46l0.47,0.45l-2.31,2.27c-2.51,2.45 -2.55,2.51 -2.09,2.96c0.52,0.5 0.47,0.54 4.2,-3.1c4.19,-4.08 4.43,-4.45 3.98,-6.15c-0.24,-0.91 -0.23,-0.9 -7.35,-7.86l-6.82,-6.68l1.48,-1.7c5.62,-6.44 13.39,-15.71 13.73,-16.36c0.79,-1.52 -1.05,-3.38 -2.67,-2.69zm-13.04,14.45c-7.21,7.05 -13.16,12.88 -13.2,12.95c-0.22,0.33 0.21,0.96 0.64,0.96c0.16,0 3.47,-3.18 13.44,-12.91c7.28,-7.1 13.09,-12.73 12.92,-12.51c-4.33,5.47 -16.24,19.21 -23.71,27.37l-1.42,1.56l-0.25,-0.18c-0.58,-0.4 -1.08,-1.24 -1.08,-1.81c0,-0.16 -0.45,-0.47 -0.69,-0.47c-1.09,0 -0.69,1.99 0.62,3.11l0.46,0.39l-0.58,0.64c-1.06,1.16 -1.07,1.22 -0.3,2c1.61,1.63 1.89,3.94 0.68,5.74c-2.53,3.82 -8.58,2.08 -8.57,-2.46c0.01,-1.66 0.35,-2.26 2.58,-4.5c1.31,-1.31 1.59,-1.64 1.87,-2.2c0.84,-1.66 0.86,-3.55 0.06,-5.1c-0.14,-0.28 -0.26,-0.55 -0.26,-0.59c0,-0.29 11.54,-10.07 19.7,-16.71c4.9,-3.99 10.07,-8.1 10.18,-8.1c0.02,0 -5.87,5.77 -13.09,12.82zm-20.4,-11.99c0.24,0.1 2.35,2.11 7.08,6.72l6.74,6.58l-1.04,0.88c-0.58,0.49 -1.14,0.96 -1.25,1.06l-0.21,0.18l-7.22,-7.05l-7.22,-7.05l0.56,-0.55c0.89,-0.88 1.7,-1.12 2.56,-0.77zm33.59,32.78c0.41,0.85 0.16,1.68 -0.75,2.56l-0.56,0.55l-7.21,-7.05c-6.72,-6.56 -7.21,-7.05 -7.09,-7.21c0.07,-0.09 0.55,-0.65 1.06,-1.24l0.95,-1.06l6.71,6.55c4.58,4.47 6.77,6.66 6.89,6.9zm-38.19,-7c-2.43,0.75 -3.19,3.72 -1.39,5.47c1.31,1.28 3.45,1.28 4.76,0c2.45,-2.39 -0.08,-6.5 -3.37,-5.47zm1.95,1.45c1.12,0.55 1.35,2.28 0.42,3.11c-1.44,1.27 -3.73,0.04 -3.31,-1.78c0.3,-1.31 1.65,-1.94 2.89,-1.33zm5.66,5.98c-2.94,0.94 -3.2,4.89 -0.4,6.17c1.19,0.55 2.83,0.25 3.79,-0.68c2.42,-2.37 -0.14,-6.53 -3.39,-5.49zm1.93,1.47c1.27,0.6 1.39,2.52 0.21,3.27c-2,1.28 -4.19,-1.19 -2.58,-2.92c0.57,-0.61 1.52,-0.75 2.37,-0.35z" fill="#1d1d1d" fill-rule="evenodd" id="svg_1"/>
 </g>
</svg>