<?xml version="1.0"?>
<svg width="46" height="47" xmlns="http://www.w3.org/2000/svg" xmlns:svg="http://www.w3.org/2000/svg">
 <g class="layer">
  <title>Layer 1</title>
  <path clip-rule="evenodd" d="m30.44,0.09c-1.95,0.59 -2.46,2.78 -1.15,5.02c0.76,1.3 2.56,1.68 3.86,0.81c0.27,-0.18 0.49,-0.31 0.51,-0.29c0.26,0.25 0.56,1.54 0.39,1.69c-0.25,0.22 -0.6,0.92 -0.68,1.34c-0.06,0.29 -0.16,0.4 -0.82,0.84c-0.78,0.51 -1.68,1.3 -2.17,1.91l-0.28,0.35l-2.36,-1.3c-6.92,-3.83 -10.68,-5.13 -14.81,-5.13c-3.48,0 -5.49,0.78 -4.46,1.74c0.25,0.23 0.36,0.23 1.58,-0.04c3.67,-0.8 8.04,0.07 13.19,2.65c1.46,0.73 5.82,3.1 6.02,3.26c0.04,0.03 -0.06,0.4 -0.21,0.82c-0.92,2.48 -0.6,5.93 0.81,8.9c0.28,0.59 0.81,0.89 1.38,0.78c0.65,-0.12 0.75,-0.31 2.17,-4.18c0.73,-1.99 1.35,-3.63 1.37,-3.65c0.02,-0.02 0.38,0.07 0.81,0.21c3.11,1 6.31,0.93 8.31,-0.17c0.61,-0.34 0.62,-0.32 0.62,1.82c0,3.45 -0.98,6.5 -2.9,8.99c-1.37,1.79 -1.4,1.85 -1.08,2.51c0.18,0.38 0.46,0.58 1.01,0.71l0.4,0.1l-0.9,1.01c-5.87,6.51 -12.57,8.44 -17.61,5.06c-3.02,-2.02 -3.9,-4.76 -3.07,-9.51c0.38,-2.15 0.5,-4.75 0.26,-5.53c-0.39,-1.23 1.55,1.98 2.1,3.49c0.31,0.83 0.73,1.06 1.24,0.65c1.1,-0.85 -2.45,-6.43 -5.28,-8.29c-0.3,-0.2 -0.82,-0.58 -1.15,-0.85c-1.32,-1.06 -2.89,-1.59 -4.72,-1.61l-1.14,-0.02l0.58,-0.29c2.59,-1.33 5.52,-1.13 8.4,0.57c1.16,0.69 1.74,0.62 1.74,-0.19c0,-0.4 -0.13,-0.52 -1.23,-1.17c-5.16,-3.02 -11.39,-1.28 -13.84,3.88c-0.88,1.85 -0.98,2.08 -1.15,2.57c-0.16,0.44 -0.39,1.31 -0.58,2.12c-0.05,0.22 -0.15,0.28 -0.77,0.46c-0.7,0.2 -1.51,0.66 -2,1.12l-0.26,0.23l-0.15,-0.28c-1.11,-2.12 -1.26,-5.97 -0.35,-8.97c0.65,-2.14 2.05,-4.2 3.61,-5.3c1.04,-0.73 1.23,-1.13 0.76,-1.57c-0.46,-0.42 -1.2,-0.06 -2.62,1.28c-3.86,3.66 -4.99,10.73 -2.5,15.6c0.33,0.65 0.35,0.72 0.36,1.64c0.01,1.18 0.23,1.74 1.04,2.57c0.78,0.81 1.68,1.23 3.24,1.52c0.12,0.02 0.28,0.22 0.45,0.56c0.64,1.28 2.07,3.05 3.13,3.84l0.47,0.36l-0.03,2.05l-0.02,2.06l-1.35,0.39c-4.96,1.42 -6.75,2.94 -6.93,5.87c-0.06,0.96 0.07,1.32 0.6,1.67l0.32,0.21l11.96,0l11.95,0l0.32,-0.21c1.16,-0.76 0.63,-3.69 -0.91,-5.02c-0.94,-0.82 -1.74,0.17 -0.9,1.12c0.58,0.64 0.89,1.32 0.94,2.1l0.05,0.63l-11.45,0l-11.46,0l0.05,-0.64c0.15,-2.08 1.61,-3.13 6.14,-4.45c2.09,-0.6 2.11,-0.62 2.11,-3.08c0,-1.37 0.02,-1.74 0.11,-1.7c2.55,1.13 3.53,1.13 6.09,0c0.09,-0.04 0.12,0.33 0.12,1.7c0,2.46 0.01,2.48 2.1,3.08c0.76,0.22 1.63,0.49 1.93,0.59c0.94,0.32 1.45,0.14 1.45,-0.52c0,-0.53 -0.12,-0.59 -2.42,-1.27l-1.62,-0.48l-0.03,-2.04l-0.02,-2.04l0.3,-0.26c0.41,-0.35 0.45,-0.34 0.87,0.26c2.32,3.35 7.15,4.89 11.7,3.75c3.61,-0.9 7.55,-3.63 10.71,-7.42c1.17,-1.41 1.03,-2.52 -0.35,-2.7l-0.37,-0.05l0.36,-0.42c2.79,-3.29 4.14,-8.15 3.52,-12.63c-0.18,-1.31 -1.04,-1.79 -2.1,-1.19c-0.42,0.24 -0.58,0.23 -0.58,-0.01c0,-1.12 -2.36,-3.97 -4.02,-4.85c-0.28,-0.15 -0.35,-0.25 -0.43,-0.62c-0.11,-0.52 -0.28,-0.86 -0.6,-1.23l-0.23,-0.27l0.29,-0.79l0.29,-0.78l0.41,0.31c1.86,1.4 3.89,0.28 4.63,-2.54c0.7,-2.71 -2.78,-4.47 -4.67,-2.35c-0.31,0.34 -0.5,0.79 -1.29,2.93l-0.93,2.54l-0.56,0l-0.56,0l-0.77,-2.13c-1,-2.74 -1.21,-3.18 -1.74,-3.64c-0.66,-0.57 -1.73,-0.81 -2.55,-0.57zm1.11,1.38c0.89,0.26 1.62,2.12 1.13,2.91c-0.83,1.35 -2.67,0.19 -2.7,-1.7c0,-0.85 0.76,-1.44 1.57,-1.21zm10.01,0.14c0.89,0.58 0.57,2.72 -0.47,3.21c-1.32,0.61 -2.18,-0.53 -1.59,-2.09c0.47,-1.24 1.23,-1.65 2.06,-1.12zm-4.82,6.44c0.52,0.32 0.72,1.06 0.44,1.59c-0.62,1.19 -2.37,0.77 -2.37,-0.58c0,-0.95 1.11,-1.53 1.93,-1.01zm-2.54,2.94l0.53,0.52l-1.82,4.96c-1.01,2.73 -1.86,5 -1.91,5.04c-0.11,0.11 -0.71,-1.81 -0.88,-2.8c-0.54,-3.29 0.41,-5.95 2.74,-7.68c0.9,-0.67 0.7,-0.67 1.34,-0.04zm4.86,-0.12c1.42,1.03 3.19,3.58 2.76,4c-0.21,0.2 -2.05,0.35 -2.83,0.22l-0.32,-0.05l-0.63,-1.72c-0.75,-2.04 -0.73,-1.73 -0.14,-2.33c0.6,-0.61 0.48,-0.6 1.16,-0.12zm-2.4,2.87c0.21,0.59 0.33,1.01 0.26,1c-1.42,-0.44 -1.65,-0.54 -1.59,-0.68c0.03,-0.08 0.21,-0.56 0.39,-1.06l0.33,-0.91l0.12,0.31c0.06,0.17 0.28,0.78 0.49,1.34zm-22.35,2.05c2.28,0.57 4.15,2.52 4.81,5c0.32,1.19 0.28,2.66 -0.15,5.09c-0.55,3.16 -0.54,4.79 0.04,6.46l0.18,0.52l-0.76,0.59c-2.76,2.16 -4.8,2.2 -7.56,0.15c-3.54,-2.64 -4.79,-6.31 -3.89,-11.42c0.85,-4.79 3.73,-7.3 7.33,-6.39zm-4.09,4.56c-0.65,0.23 -0.95,0.44 -1.02,0.71c-0.17,0.71 0.4,1.11 1.13,0.79c0.56,-0.24 1.17,-0.24 1.78,0.01c0.46,0.19 0.49,0.19 0.73,0.04c1.31,-0.85 -0.89,-2.15 -2.62,-1.55zm0.48,3.09c-0.58,0.57 -0.22,2.17 0.48,2.16c0.54,-0.01 0.77,-0.38 0.77,-1.24c0,-0.97 -0.69,-1.48 -1.25,-0.92zm-5.42,1.55c-0.03,1.1 0,1.76 0.11,2.45c0.18,1.1 0.2,1.05 -0.32,0.87c-2.45,-0.85 -2.7,-3.47 -0.43,-4.58c0.71,-0.35 0.68,-0.41 0.64,1.26zm6.81,4.6c-1.26,1.25 2.67,2.2 4.64,1.12c1.15,-0.62 0.4,-1.59 -0.89,-1.16c-0.87,0.29 -1.75,0.29 -2.53,0.01c-0.72,-0.25 -0.94,-0.25 -1.22,0.03z" fill="#1d1d1d" fill-rule="evenodd" id="svg_1"/>
 </g>
</svg>