<?xml version="1.0"?>
<svg width="46" height="46" xmlns="http://www.w3.org/2000/svg" xmlns:svg="http://www.w3.org/2000/svg">
 <g class="layer">
  <title>Layer 1</title>
  <path clip-rule="evenodd" d="m0.21,0.25c-0.34,0.33 -0.43,-1.31 0.98,17.86c1.06,14.53 1.23,17.17 1.23,19.26l0,2.42l0.25,0.25l0.26,0.26l3.43,0l3.44,0l0.04,0.8c0.04,1.01 0.39,1.65 1.16,2.12l0.5,0.31l2.85,0.03l2.85,0.03l0.06,0.42c0.08,0.62 0.56,1.32 1.14,1.68l0.51,0.31l9.01,0l9.01,0l0.5,-0.31c0.59,-0.36 1.07,-1.06 1.15,-1.68l0.06,-0.42l2.84,-0.03l2.85,-0.03l0.51,-0.31c0.31,-0.19 0.62,-0.5 0.81,-0.81l0.31,-0.51l0.03,-9.77c0.02,-6.95 0,-9.99 -0.08,-10.53c-0.3,-1.9 -1.28,-3.75 -2.72,-5.15l-0.47,-0.46l0,-1.98c0,-2.53 0.02,-2.5 -1.48,-2.5l-0.99,0l0,-1.64l0,-1.65l0.61,0c0.93,0 1.36,-0.7 0.83,-1.37l-0.22,-0.27l-5.74,0l-5.74,0l-0.21,0.27c-0.12,0.15 -0.22,0.4 -0.22,0.55c0,0.16 0.1,0.4 0.22,0.55l0.21,0.27l2.66,0l2.67,0l0,1.65l0,1.64l-0.98,0c-1.51,0 -1.49,-0.03 -1.49,2.5l0,1.98l-0.47,0.46c-2.35,2.29 -2.82,3.83 -2.82,9.41l0,3.74l-2.46,0l-2.47,0l0,-2.54c0,-3.19 -0.22,-4.12 -1.29,-5.58l-0.36,-0.49l0,-4.9l0,-4.89l-0.25,-0.26c-0.23,-0.23 -0.33,-0.25 -1.18,-0.25l-0.92,0l0.05,-0.49c0.09,-0.9 0.66,-8.88 0.66,-9.29c0,-0.29 -0.07,-0.48 -0.25,-0.66l-0.26,-0.25l-10.18,0l-10.19,0l-0.25,0.25zm19.34,2.03c-0.03,0.34 -0.06,0.71 -0.06,0.82c0,0.18 -0.3,0.19 -8.84,0.19c-8.54,0 -8.85,-0.01 -8.85,-0.19c0,-0.11 -0.03,-0.48 -0.06,-0.82l-0.07,-0.64l8.98,0l8.97,0l-0.07,0.64zm-0.21,3.14c-0.07,0.59 -0.37,4.65 -0.37,5.01l0,0.26l-3.5,0l-3.5,0l-0.25,0.25l-0.25,0.26l0,4.89l0,4.9l-0.36,0.5c-1.19,1.62 -1.29,2.17 -1.29,7.66l0,4.57l-2.87,0l-2.87,0l-0.06,-0.34c-0.03,-0.18 -0.49,-6.46 -1.03,-13.95c-0.54,-7.49 -1.01,-13.82 -1.04,-14.06l-0.06,-0.44l8.75,0l8.75,0l-0.05,0.49zm19.27,4.45l0,1.64l-0.82,0l-0.82,0l0,-1.64l0,-1.65l0.82,0l0.82,0l0,1.65zm-17.27,6.58l0,4.11l-0.41,0l-0.41,0l0,-3.45l0,-3.45l-0.26,-0.25l-0.25,-0.25l-2.78,0l-2.79,0l-0.25,0.25l-0.25,0.25l0,3.45l0,3.45l-0.42,0l-0.41,0l0,-4.11l0,-4.11l4.12,0l4.11,0l0,4.11zm19.74,-2.06l0,1.23l-3.29,0l-3.29,0l0,-1.23l0,-1.23l3.29,0l3.29,0l0,1.23zm-22.21,3.29l0,2.88l-1.64,0l-1.65,0l0,-2.88l0,-2.88l1.65,0l1.64,0l0,2.88zm-2.29,-1.48c-0.78,0.42 -0.77,1.74 0.03,2.15c0.61,0.32 1.4,0.1 1.69,-0.46c0.59,-1.13 -0.6,-2.3 -1.72,-1.69zm25.34,1.38c0.85,0.7 1.74,2.15 2.16,3.51l0.23,0.75l0.03,9.75l0.04,9.74l-0.31,0.31l-0.3,0.3l-2.58,0l-2.58,0l0,-5.92l0,-5.91l-0.25,-0.25l-0.25,-0.26l-3.46,0l-3.46,0l0.04,-3.88c0.04,-3.62 0.06,-3.93 0.27,-4.63c0.4,-1.35 1.3,-2.81 2.16,-3.51l0.37,-0.31l3.76,0l3.75,0l0.38,0.31zm-19.78,5.14c0.71,1.08 0.77,1.41 0.82,4.29l0.04,2.59l-2.63,0l-2.64,0l-0.25,0.26l-0.25,0.25l0,5.91l0,5.92l-2.58,0l-2.58,0l-0.3,-0.3l-0.31,-0.31l0.03,-8.46c0.04,-9.5 -0.02,-8.88 0.82,-10.15l0.34,-0.52l4.58,0l4.57,0l0.34,0.52zm14.83,10.17l0,1.65l-9.05,0l-9.05,0l0,-1.65l0,-1.64l9.05,0l9.05,0l0,1.64zm-27.15,4.12l0,1.64l-2.87,0l-2.88,0l0,-1.64l0,-1.65l2.88,0l2.87,0l0,1.65zm27.15,2.98l0,3.82l-0.31,0.3l-0.3,0.3l-8.44,0l-8.45,0l-0.3,-0.3l-0.3,-0.3l0,-3.82l0,-3.81l9.05,0l9.05,0l0,3.81z" fill="#1d1d1d" fill-rule="evenodd" id="svg_1"/>
 </g>
</svg>